<svg width="457" height="140" viewBox="0 0 457 140" fill="none" xmlns="http://www.w3.org/2000/svg">
<path d="M9.36 47.76C9.36 40 11.32 34.4 15.24 30.96C19.16 27.52 25.52 25.8 34.32 25.8C40.48 25.8 45.44 27.4 49.2 30.6C52.96 33.8 55.68 38.68 57.36 45.24L46.2 53.64H40.32L53.28 43.92C51.6 38.56 49.16 34.8 45.96 32.64C42.84 30.48 38.96 29.4 34.32 29.4C31.12 29.4 28.4 29.6 26.16 30C24 30.4 21.8 31.2 19.56 32.4C17.4 33.52 15.76 35.36 14.64 37.92C13.52 40.48 12.96 43.76 12.96 47.76C12.96 51.28 14.56 54.4 17.76 57.12C21.04 59.84 25 62.16 29.64 64.08C34.28 66 38.92 67.96 43.56 69.96C48.28 71.96 52.24 74.52 55.44 77.64C58.72 80.76 60.36 84.36 60.36 88.44C60.36 96.44 58.36 102.4 54.36 106.32C50.44 110.24 43.68 112.2 34.08 112.2C26.24 112.2 20.08 110.64 15.6 107.52C11.12 104.32 8.04 99.4 6.36 92.76L9.72 91.32C11.32 97.8 14.04 102.32 17.88 104.88C21.8 107.36 27.2 108.6 34.08 108.6C41.76 108.6 47.44 107.12 51.12 104.16C54.88 101.2 56.76 95.96 56.76 88.44C56.76 84.92 55.12 81.8 51.84 79.08C48.64 76.36 44.68 74.04 39.96 72.12C35.32 70.2 30.68 68.24 26.04 66.24C21.4 64.24 17.44 61.68 14.16 58.56C10.96 55.44 9.36 51.84 9.36 47.76ZM83.2256 27H131.826L101.826 75V111H98.2256V75L68.2256 27H72.4256L100.026 71.04L125.346 30.6H83.2256V27ZM154.013 107.4H191.213L148.253 33.12V111H144.653V27H148.853L193.733 104.64V27H197.333V111H154.013V107.4ZM264.14 67.08H228.5L265.22 30.6H224.66V111H221.06V27H273.98L237.26 63.48H264.14V67.08ZM289.196 107.4H333.356L307.916 37.44L281.156 111H277.316L307.916 26.88L338.516 111H289.196V107.4ZM371.744 66.72L395.264 111H391.184L369.704 70.56L348.224 111H344.144L367.664 66.72L346.544 27H350.624L369.704 62.88L388.784 27H392.864L371.744 66.72ZM429.869 66.72L453.389 111H449.309L427.829 70.56L406.349 111H402.269L425.789 66.72L404.669 27H408.749L427.829 62.88L446.909 27H450.989L429.869 66.72Z" fill="white"/>
</svg>
