<svg width="430" height="430" viewBox="0 0 430 430" fill="none" xmlns="http://www.w3.org/2000/svg">
<circle cx="215" cy="215" r="215" fill="#00FF4C"/>
<path fill-rule="evenodd" clip-rule="evenodd" d="M391.714 337.497L381.214 337.526L381.212 336.886L380.572 336.886V335.084L379.178 335.093L379.174 334.453L378.534 334.456L378.3 275.595L378.289 275.595L378.136 234.591L345.796 234.681L345.916 385.56C337.607 391.947 328.817 397.742 319.61 402.879L319.477 234.591L287.008 234.681L287.045 254.793L287.111 254.859L266.916 275.07L266.917 275.576L266.409 275.577L266.343 275.643L266.277 275.577L266.277 276.217H261.383L261.383 275.577L260.743 275.578L260.666 234.591L228.308 234.681L228.55 311.281L284.385 311.203L284.451 311.137L284.517 311.203L284.583 311.269L284.517 311.335V313.652L286.831 313.637L286.898 313.57L286.964 313.636L287.03 313.702L286.965 313.767L287.521 414.142L296.22 414.13C271.161 424.361 243.739 430 215 430C210.702 430 206.434 429.874 202.198 429.625L201.928 393.236L202.568 393.231L202.564 392.591L203.212 392.587L223.338 372.447L228.099 372.415L228.166 372.348L228.232 372.414L228.298 372.48L228.233 372.545L228.54 414.142L261.103 414.097L260.678 337.531L205.016 337.607L205.015 336.967L204.375 336.967V335.077H202.895L202.895 334.437L202.255 334.439L201.928 231.495L202.568 231.493V230.853H203.208L204.375 229.686V229.207H204.855L205.015 229.047L205.014 228.567L205.496 228.566L223.338 210.725L223.469 210.725L225.768 208.423L260.734 208.326L260.663 4.85911C269.657 6.80421 278.441 9.31198 286.977 12.3437L287.009 105.558L319.55 105.513L319.496 27.0575C328.71 32.1916 337.508 37.9837 345.825 44.3703L345.868 105.558L378.201 105.513L378.18 75.0035C392.671 91.8783 404.589 111.026 413.326 131.839L404.537 131.852L404.59 208.416L429.899 208.346C429.966 210.555 430 212.774 430 215C430 221.611 429.702 228.153 429.117 234.613L404.523 234.681L404.603 254.805L404.657 254.859L404.603 254.913L404.826 311.195L407.336 311.188C402.745 320.35 397.518 329.139 391.714 337.497ZM228.277 0.403256C223.886 0.135721 219.459 0 215 0C210.613 0 206.257 0.131373 201.936 0.390399L202.255 175.655L202.895 175.654L202.895 176.294H207.789L207.789 175.654L207.855 175.72L207.922 175.654L208.429 175.653L208.428 175.147L228.623 154.936L228.557 154.87L228.277 0.403256ZM169.438 4.83718L169.58 210.709V210.709L169.646 210.775L169.419 211.003L169.58 254.793L169.646 254.859L149.451 275.055L149.452 275.559L148.945 275.561L148.878 275.627L148.812 275.561L148.817 276.201L143.922 276.233L143.918 275.593L143.278 275.595L143.127 234.591L110.805 234.681L110.926 311.281L166.838 311.203L166.905 311.137L166.971 311.203L167.037 311.269L166.971 311.335V313.652L169.285 313.637L169.352 313.57L169.418 313.636L169.484 313.702L169.418 313.767L169.907 416.497L169.973 416.563L162.898 423.644C152.88 421.15 143.14 417.954 133.733 414.111L143.494 414.097L143.13 337.531L87.5525 337.607L87.5516 336.967L86.9116 336.967V335.077H85.2676L85.2676 334.437L84.6276 334.438L84.4645 231.494L84.6276 231.494L84.4976 44.123C92.8097 37.7653 101.599 32.0003 110.803 26.8913L110.929 208.416L143.262 208.326L143.126 12.3072C151.662 9.28042 160.445 6.77754 169.438 4.83718ZM52.1509 74.6194L52.1981 210.709L52.264 210.775L52.1826 210.857L52.1981 210.872L52.264 210.938L52.1979 211.004L52.1166 280.998L52.1826 281.064L31.9887 301.273L31.9881 301.783L31.48 301.782L31.4142 301.848L31.3481 301.782L31.3481 302.422H26.4537V301.782L25.8137 301.781L25.8919 234.591L0.886852 234.66C0.299894 228.185 0 221.628 0 215C0 212.791 0.033307 210.59 0.0994463 208.398L25.8873 208.326L25.8607 131.807L16.6819 131.82C25.4851 110.856 37.5153 91.5822 52.1509 74.6194ZM110.881 403.152C103.316 398.957 96.0307 394.319 89.0602 389.272L105.873 372.447L110.635 372.43L110.701 372.364L110.767 372.43L110.833 372.496L110.768 372.561L110.881 403.152ZM378.273 208.326L378.219 131.807L345.886 131.852L345.939 208.416L378.273 208.326ZM319.621 208.326L287.044 208.416L287.018 131.852L319.568 131.807L319.621 208.326Z" fill="#070519"/>
</svg>
