<svg width="430" height="430" viewBox="0 0 430 430" fill="none" xmlns="http://www.w3.org/2000/svg">
<circle cx="215" cy="215" r="215" fill="#1D397A"/>
<path fill-rule="evenodd" clip-rule="evenodd" d="M407.25 311.685C419.057 288.198 426.697 262.251 429.198 234.816L405.747 234.881L406.018 311.688L407.25 311.685ZM346.729 385.252C358.702 375.953 369.668 365.416 379.435 353.832V234.791L346.61 234.882L346.729 385.252ZM294.86 415.017C303.662 411.492 312.177 407.4 320.36 402.788L320.228 234.792L287.677 234.882L287.714 255.073L287.78 255.139L267.534 275.428L267.535 275.935L267.027 275.936L266.961 276.002L266.895 275.936V276.576H261.989V275.936L261.349 275.937L261.272 234.792L228.833 234.882L229.075 311.775L285.048 311.697L285.114 311.631L285.18 311.697L285.246 311.763L285.18 311.829V314.156L287.5 314.14L287.567 314.073L287.633 314.139L287.699 314.205L287.634 314.271L288.192 415.027L294.86 415.017ZM229.066 415.027L261.71 414.981L261.284 338.122L205.484 338.199L205.483 337.559L204.843 337.559V335.66H203.358L203.358 335.02L203.358 335.015L203.032 232.326H203.03V231.686V231.046H203.669L204.843 229.87V229.391H205.322L205.483 229.23L205.481 228.75L205.963 228.749L223.85 210.839L223.982 210.838L226.286 208.528L261.341 208.43L261.27 4.63122C250.717 2.31505 239.873 0.774637 228.803 0.0727123L229.083 154.772L229.149 154.838L208.903 175.126L208.904 175.633L208.396 175.634L208.33 175.701L208.264 175.635L208.264 176.275H203.358L203.358 175.635L202.717 175.636L202.398 0C191.291 0.642473 180.41 2.12871 169.818 4.39564L169.961 210.823L170.027 210.888L169.799 211.117L169.961 255.073L170.027 255.139L149.78 275.413L149.782 275.918L149.274 275.92L149.208 275.986L149.142 275.92L149.146 276.56L144.24 276.592L144.236 275.952L143.596 275.955L143.444 234.792L111.042 234.882L111.163 311.776L167.213 311.697L167.279 311.631L167.345 311.697L167.411 311.763L167 312.175V314.158L169.395 314.142L169.516 314L169.517 314.141L169.665 314.14L169.732 314.073L169.798 314.139L169.864 314.205L169.519 314.551L169.938 417.611L170.223 417.325L170.355 417.457L169.939 417.874L169.97 425.622C180.596 427.888 191.513 429.369 202.656 430L202.39 394.041L203.03 394.037L203.026 393.396L203.673 393.392L223.85 373.174L228.624 373.141L228.691 373.074L228.757 373.14L228.823 373.206L228.758 373.271L229.066 415.027ZM143.447 338.122L87.7316 338.199L87.7307 337.559L87.0907 337.559V335.66H85.441L85.441 335.02L84.8009 335.021L84.6375 231.687L85.2775 231.686L84.8009 231.686L84.6708 43.6559C72.8369 52.6931 61.9671 62.9313 52.2429 74.1889L52.2902 210.823L52.3563 210.888L52.2746 210.97L52.2902 210.986L52.3563 211.052L52.29 211.118L52.2085 281.378L52.2746 281.444L32.0296 301.731L32.029 302.242L31.5207 302.241L31.4551 302.307L31.389 302.241L31.389 302.881H26.4826V302.241L25.8426 302.24L25.921 234.792L0.807451 234.862C4.37626 273.922 18.363 309.966 39.9617 340.184L46.9666 331.184H51.8454H51.9275L51.8455 331.29L51.8692 355.363C62.9764 368.29 75.5903 379.883 89.4381 389.867L106.097 373.174L110.871 373.157L110.938 373.09L111.004 373.156L111.07 373.222L111.004 373.288L111.116 403.612C118.827 407.879 126.828 411.685 135.082 414.994L143.812 414.982L143.447 338.122ZM165.27 314.17L165.007 314.172L166.308 312.868L165.27 314.17ZM413.398 131.652C423.357 155.389 429.191 181.289 430 208.452L405.548 208.52L405.495 131.663L413.398 131.652ZM346.753 208.52L379.168 208.43L379.114 131.619L346.7 131.663L346.753 208.52ZM111.165 208.52L143.58 208.43L143.444 11.8405C132.183 15.8164 121.352 20.7044 111.039 26.4156L111.165 208.52ZM25.8898 131.619L25.9164 208.43L0 208.502C0.803849 181.313 6.64136 155.388 16.6117 131.631L25.8898 131.619ZM320.319 131.619L320.372 208.43L287.713 208.521L287.687 131.663L320.319 131.619ZM287.678 105.272L320.301 105.227L320.247 27.1331C309.881 21.2993 298.984 16.3006 287.646 12.2282L287.678 105.272ZM346.682 105.272L379.096 105.227L379.075 75.7281C369.375 64.2829 358.501 53.8659 346.639 44.6633L346.682 105.272Z" fill="url(#paint0_linear)"/>
<defs>
<linearGradient id="paint0_linear" x1="215.001" y1="-0.363639" x2="215.001" y2="430.349" gradientUnits="userSpaceOnUse">
<stop stop-color="#1D397A"/>
<stop offset="1" stop-color="#8BF7FF"/>
</linearGradient>
</defs>
</svg>
