<svg width="430" height="430" viewBox="0 0 430 430" fill="none" xmlns="http://www.w3.org/2000/svg">
<path fill-rule="evenodd" clip-rule="evenodd" d="M429.899 208.346C429.07 181.087 423.168 155.106 413.104 131.312C413.178 131.488 413.253 131.664 413.326 131.839L404.537 131.852L404.59 208.416L429.899 208.346ZM378.18 75.0035C368.451 63.6738 357.562 53.3688 345.698 44.2726C345.74 44.3052 345.783 44.3377 345.825 44.3703L345.868 105.558L378.201 105.513L378.18 75.0035ZM319.496 27.0576C319.496 27.0576 319.496 27.0575 319.496 27.0575L319.55 105.513L287.009 105.558L286.977 12.3437C286.8 12.2811 286.624 12.2187 286.447 12.1565C297.943 16.2055 308.99 21.2039 319.496 27.0576ZM260.663 4.8591L260.734 208.326L225.768 208.423L223.469 210.725L223.338 210.725L205.496 228.566L205.014 228.567L205.015 229.047L204.855 229.207L204.375 229.207V229.686L203.208 230.853H202.568V231.493L201.928 231.495L202.255 334.439L202.895 334.437L202.895 335.077H204.375V336.967L205.015 336.967L205.016 337.607L260.678 337.531L261.103 414.097L228.54 414.142L228.233 372.545L228.298 372.48L228.232 372.414L228.166 372.348L228.099 372.415L223.338 372.447L203.212 392.587L202.564 392.591L202.568 393.231L201.928 393.236L202.198 429.625C202.32 429.632 202.441 429.639 202.563 429.646C188.965 428.871 175.704 426.831 162.898 423.644L169.973 416.563L169.907 416.497L169.418 313.767L169.484 313.702L169.418 313.636L169.352 313.57L169.285 313.637L166.971 313.652V311.335L167.037 311.269L166.971 311.203L166.905 311.137L166.838 311.203L110.926 311.281L110.805 234.681L143.127 234.591L143.278 275.595L143.918 275.593L143.922 276.233L148.817 276.201L148.812 275.561L148.878 275.627L148.945 275.561L149.452 275.559L149.451 275.055L169.646 254.859L169.58 254.793L169.419 211.003L169.646 210.775L169.58 210.709V210.709L169.438 4.83717C180.003 2.55763 190.856 1.05447 201.936 0.390381L202.255 175.655L202.895 175.654L202.895 176.294H207.789L207.789 175.654L207.855 175.72L207.922 175.654L208.429 175.653L208.428 175.147L228.623 154.936L228.557 154.87L228.277 0.403237C239.318 1.07591 250.134 2.58189 260.663 4.8591ZM143.126 12.3071C131.893 16.2905 121.089 21.1813 110.803 26.8912L110.929 208.416L143.262 208.326L143.126 12.3071ZM84.4976 44.123L84.6276 231.494L84.4645 231.494L84.6276 334.438L85.2676 334.437L85.2675 335.077H86.9116V336.967L87.5516 336.967L87.5525 337.607L143.13 337.531L143.494 414.097L133.733 414.111C125.872 410.899 118.244 407.235 110.881 403.152L110.768 372.561L110.833 372.496L110.767 372.43L110.701 372.364L110.635 372.43L105.873 372.447L89.0601 389.272C40.0896 353.822 6.65013 298.236 0.886834 234.66L25.8919 234.591L25.8137 301.781L26.4537 301.782V302.422H31.348L31.3481 301.782L31.4141 301.848L31.48 301.782L31.9881 301.783L31.9887 301.273L52.1826 281.064L52.1165 280.998L52.1979 211.004L52.264 210.938L52.198 210.872L52.1826 210.857L52.264 210.775L52.198 210.709L52.1509 74.6194C61.8493 63.3787 72.6919 53.153 84.4976 44.123ZM16.6819 131.82C6.7421 155.49 0.916343 181.314 0.0994263 208.398L25.8873 208.326L25.8607 131.807L16.6819 131.82ZM296.219 414.13C296.219 414.13 296.219 414.13 296.22 414.13L287.521 414.142L286.965 313.767L287.03 313.702L286.964 313.636L286.898 313.57L286.831 313.637L284.517 313.652V311.335L284.583 311.269L284.517 311.203L284.451 311.137L284.385 311.203L228.55 311.281L228.308 234.681L260.666 234.591L260.743 275.578L261.382 275.577L261.383 276.217H266.277L266.277 275.577L266.343 275.643L266.409 275.577L266.917 275.576L266.916 275.069L287.111 254.859L287.045 254.793L287.008 234.681L319.477 234.591L319.61 402.879C319.659 402.851 319.709 402.824 319.758 402.796C312.183 407.031 304.325 410.821 296.219 414.13ZM345.916 385.56C363.594 371.971 379.098 355.695 391.82 337.344C391.785 337.395 391.749 337.446 391.714 337.497L381.214 337.526L381.212 336.886L380.572 336.886V335.084L379.178 335.093L379.174 334.453L378.534 334.456L378.3 275.595L378.289 275.595L378.136 234.591L345.796 234.681L345.916 385.56ZM407.336 311.188C419.115 287.681 426.711 261.716 429.148 234.267C429.138 234.382 429.128 234.497 429.117 234.613L404.523 234.681L404.603 254.805L404.657 254.859L404.603 254.913L404.826 311.195L407.336 311.188ZM378.219 131.807L378.273 208.326L345.939 208.416L345.886 131.852L378.219 131.807ZM287.044 208.416L319.621 208.326L319.568 131.807L287.018 131.852L287.044 208.416Z" fill="#00FF4C"/>
</svg>
