<?xml version="1.0" encoding="UTF-8"?>
<svg viewBox="0 0 449 520" xmlns="http://www.w3.org/2000/svg">
<mask id="a" x="0" y="0" width="449" height="521" fill="black" maskUnits="userSpaceOnUse">
<rect width="449" height="521" fill="#fff"/>
<path d="m406.55 235.39c23.712 16.302 37.984 43.045 37.984 72.498 0 33.451-18.571 63.446-47.928 78.435 1.755 20.52-4.926 41.198-18.352 56.786-10.409 12.124-24.294 20.705-39.623 24.601-24.269 74.558-132.8 58.833-134.39-20.052v-149.48c5e-3 -0.137 0.013-0.274 0.022-0.409v-89.293c-9e-3 -0.134-0.017-0.269-0.022-0.407v-149.48c1.947-66.932 95.35-74.793 108.86-9.7537 42.358-9.3513 82.023 29.968 72.986 72.417 39.244 23.134 49.423 78.736 20.456 114.14zm-182.28-27.27c1e-3 -0.016 1e-3 -0.032 2e-3 -0.048v-149.48c1.642-44.881 65.185-46.736 69.613-2.2437-8.982 5.3685-16.41 12.901-21.702 22.067-2.766 4.7887-1.125 10.912 3.664 13.676 4.704 2.7403 10.896 1.1684 13.677-3.6644 4.329-7.4981 10.774-13.377 18.638-17.002 0.107-0.049 0.212-0.1011 0.317-0.1532 32.914-14.936 68.256 17.176 56.564 51.372-0.018 0.046-0.036 0.092-0.053 0.137-0.014 0.036-0.027 0.071-0.04 0.107-0.015 0.039-0.029 0.079-0.043 0.12-3.292 9.407-9.857 17.332-18.489 22.315-4.788 2.765-6.429 8.887-3.665 13.677 2.781 4.833 8.973 6.404 13.677 3.666 9.322-5.382 17.016-13.081 22.389-22.258 27.903 18.963 32.786 60.607 9.623 85.402-3.014-1.176-6.091-2.186-9.207-3.02-5.342-1.432-10.831 1.738-12.262 7.08-1.432 5.34 1.738 10.831 7.08 12.262 4.196 1.124 8.304 2.66 12.211 4.564 0.142 0.069 0.283 0.133 0.425 0.195 52.158 25.378 49.445 102.22-4.273 123.95l-0.044 0.015-0.031 0.011c-0.045 0.016-0.091 0.033-0.136 0.05-0.028 0.01-0.056 0.021-0.084 0.032l-0.059 0.023c-0.038 0.014-0.076 0.03-0.114 0.045-13.608 5.542-28.951 6.466-43.138 2.643-5.342-1.431-10.831 1.738-12.262 7.08-1.431 5.34 1.738 10.831 7.08 12.262 14.038 3.78 29.118 3.992 43.222 0.61-0.381 27.785-20.323 51.085-47.739 55.665-0.043 5e-3 -0.085 0.011-0.128 0.018-0.046 7e-3 -0.092 0.014-0.138 0.022-7.993 1.31-16.262 0.898-24.08-1.198-5.343-1.43-10.831 1.738-12.263 7.08-1.431 5.34 1.738 10.831 7.08 12.263 5.418 1.451 10.982 2.308 16.581 2.557-23.698 44.706-91.259 28.693-91.891-22.35v-149.48c-1e-3 -0.015-1e-3 -0.031-2e-3 -0.047v-44.804c1e-3 -0.067 2e-3 -0.133 2e-3 -0.2v-7e-3c0-0.067-1e-3 -0.133-2e-3 -0.2v-44.803zm32.724-95.943c11.513 11.999 32.233 12 43.746 0 9.758-9.016 23.179 4.392 14.16 14.16-18.968 19.768-53.098 19.768-72.066 0-9.015-9.758 4.393-23.179 14.16-14.16zm44.092 236.83c5.34-1.431 8.51-6.922 7.079-12.263-1.431-5.342-6.92-8.511-12.262-7.081-11.13 2.983-20.434 10.12-26.197 20.101-5.761 9.98-7.292 21.607-4.309 32.737 1.411 5.385 7.064 8.516 12.261 7.081 5.341-1.431 8.511-6.922 7.08-12.263-1.598-5.965-0.777-12.195 2.31-17.542 3.088-5.348 8.073-9.173 14.038-10.77zm11.699-153.1c3.91-3.91 10.25-3.91 14.16 0s3.91 10.25 0 14.16c-12.001 11.514-12.002 32.232 0 43.746 9.022 9.743-4.408 23.185-14.16 14.16-19.768-18.969-19.769-53.097 0-72.066zm-298.77 54.112c5.5297 0 10.012-4.482 10.012-10.012v-70.085c-0.5287-13.284-19.501-13.274-20.024 0v70.085c0 5.53 4.4824 10.012 10.012 10.012zm30.037-60.072c0-16.562 13.474-30.037 30.036-30.037s30.036 13.475 30.036 30.037v30.036c-1.639 39.826-58.419 39.856-60.073 0v-30.036zm20.024 30.036c0.5467 13.275 19.472 13.284 20.024 0h1e-3v-30.036c0-5.521-4.4914-10.012-10.012-10.012h-1e-3c-5.5207 0-10.012 4.491-10.012 10.012v30.036zm90.11-60.073c-16.562 0-30.036 13.475-30.036 30.037v30.036c1.654 39.856 58.434 39.826 60.073 0v-30.036c0-16.562-13.475-30.037-30.037-30.037zm10.012 60.073c-0.551 13.285-19.478 13.275-20.024 0v-30.036c0-5.521 4.492-10.012 10.012-10.012 5.521 0 10.012 4.491 10.012 10.012v30.036zm-100.12-90.11c0 5.53-4.4824 10.012-10.012 10.012-5.5296 0-10.012-4.482-10.012-10.012v-70.084c0.5237-13.274 19.496-13.284 20.024 0v70.084zm80.098-20.024v-30.036c-1.654-39.856-58.433-39.826-60.072 0v30.036c1.655 39.856 58.433 39.826 60.072 0zm-20.024 0c-0.552 13.285-19.478 13.276-20.024 0v-30.036c0-5.5207 4.491-10.012 10.012-10.012s10.012 4.4914 10.012 10.012v30.036zm60.074 20.024c0 5.53-4.483 10.012-10.013 10.012-5.529 0-10.012-4.482-10.012-10.012v-70.084c0.524-13.274 19.496-13.284 20.025 0v70.084zm-90.11 140.17c-5.5297 0-10.012 4.483-10.012 10.012v70.085c0.5286 13.284 19.5 13.274 20.024 0v-70.085c0-5.529-4.4826-10.012-10.012-10.012zm-30.038 30.037v30.036c-1.639 39.826-58.418 39.857-60.072 0v-30.036c1.639-39.827 58.418-39.857 60.072 0zm-40.048 30.036c0.5466 13.276 19.472 13.285 20.024 0v-30.036c0-5.521-4.4914-10.013-10.012-10.013-5.5207 0-10.012 4.492-10.012 10.013v30.036zm130.16-60.073c-16.562 0-30.036 13.475-30.036 30.037v30.036c1.655 39.857 58.434 39.826 60.073 0v-30.036c0-16.562-13.475-30.037-30.037-30.037zm10.012 60.073c-0.551 13.285-19.478 13.276-20.024 0v-30.036c0-5.521 4.492-10.013 10.012-10.013 5.521 0 10.012 4.492 10.012 10.013v30.036zm-40.051 60.07c0-5.529 4.482-10.012 10.012-10.012s10.012 4.483 10.012 10.012v70.085c-0.523 13.274-19.495 13.284-20.024 0v-70.085zm-50.061-10.012c-16.562 0-30.036 13.474-30.036 30.036v30.037c1.655 39.856 58.433 39.827 60.073 0v-30.037c0-16.563-13.474-30.036-30.036-30.036zm10.012 60.073c-0.5517 13.286-19.478 13.275-20.024 0v-30.037c0.5517-13.284 19.478-13.275 20.024 0v30.037zm80.099-50.061c0-5.529 4.483-10.012 10.012-10.012 5.53 0 10.013 4.483 10.013 10.012v70.085c-0.524 13.274-19.496 13.284-20.025 0v-70.085z" clip-rule="evenodd" fill-rule="evenodd"/>
</mask>
<path d="m406.55 235.39c23.712 16.302 37.984 43.045 37.984 72.498 0 33.451-18.571 63.446-47.928 78.435 1.755 20.52-4.926 41.198-18.352 56.786-10.409 12.124-24.294 20.705-39.623 24.601-24.269 74.558-132.8 58.833-134.39-20.052v-149.48c5e-3 -0.137 0.013-0.274 0.022-0.409v-89.293c-9e-3 -0.134-0.017-0.269-0.022-0.407v-149.48c1.947-66.932 95.35-74.793 108.86-9.7537 42.358-9.3513 82.023 29.968 72.986 72.417 39.244 23.134 49.423 78.736 20.456 114.14zm-182.28-27.27c1e-3 -0.016 1e-3 -0.032 2e-3 -0.048v-149.48c1.642-44.881 65.185-46.736 69.613-2.2437-8.982 5.3685-16.41 12.901-21.702 22.067-2.766 4.7887-1.125 10.912 3.664 13.676 4.704 2.7403 10.896 1.1684 13.677-3.6644 4.329-7.4981 10.774-13.377 18.638-17.002 0.107-0.049 0.212-0.1011 0.317-0.1532 32.914-14.936 68.256 17.176 56.564 51.372-0.018 0.046-0.036 0.092-0.053 0.137-0.014 0.036-0.027 0.071-0.04 0.107-0.015 0.039-0.029 0.079-0.043 0.12-3.292 9.407-9.857 17.332-18.489 22.315-4.788 2.765-6.429 8.887-3.665 13.677 2.781 4.833 8.973 6.404 13.677 3.666 9.322-5.382 17.016-13.081 22.389-22.258 27.903 18.963 32.786 60.607 9.623 85.402-3.014-1.176-6.091-2.186-9.207-3.02-5.342-1.432-10.831 1.738-12.262 7.08-1.432 5.34 1.738 10.831 7.08 12.262 4.196 1.124 8.304 2.66 12.211 4.564 0.142 0.069 0.283 0.133 0.425 0.195 52.158 25.378 49.445 102.22-4.273 123.95l-0.044 0.015-0.031 0.011c-0.045 0.016-0.091 0.033-0.136 0.05-0.028 0.01-0.056 0.021-0.084 0.032l-0.059 0.023c-0.038 0.014-0.076 0.03-0.114 0.045-13.608 5.542-28.951 6.466-43.138 2.643-5.342-1.431-10.831 1.738-12.262 7.08-1.431 5.34 1.738 10.831 7.08 12.262 14.038 3.78 29.118 3.992 43.222 0.61-0.381 27.785-20.323 51.085-47.739 55.665-0.043 5e-3 -0.085 0.011-0.128 0.018-0.046 7e-3 -0.092 0.014-0.138 0.022-7.993 1.31-16.262 0.898-24.08-1.198-5.343-1.43-10.831 1.738-12.263 7.08-1.431 5.34 1.738 10.831 7.08 12.263 5.418 1.451 10.982 2.308 16.581 2.557-23.698 44.706-91.259 28.693-91.891-22.35v-149.48c-1e-3 -0.015-1e-3 -0.031-2e-3 -0.047v-44.804c1e-3 -0.067 2e-3 -0.133 2e-3 -0.2v-7e-3c0-0.067-1e-3 -0.133-2e-3 -0.2v-44.803zm32.724-95.943c11.513 11.999 32.233 12 43.746 0 9.758-9.016 23.179 4.392 14.16 14.16-18.968 19.768-53.098 19.768-72.066 0-9.015-9.758 4.393-23.179 14.16-14.16zm44.092 236.83c5.34-1.431 8.51-6.922 7.079-12.263-1.431-5.342-6.92-8.511-12.262-7.081-11.13 2.983-20.434 10.12-26.197 20.101-5.761 9.98-7.292 21.607-4.309 32.737 1.411 5.385 7.064 8.516 12.261 7.081 5.341-1.431 8.511-6.922 7.08-12.263-1.598-5.965-0.777-12.195 2.31-17.542 3.088-5.348 8.073-9.173 14.038-10.77zm11.699-153.1c3.91-3.91 10.25-3.91 14.16 0s3.91 10.25 0 14.16c-12.001 11.514-12.002 32.232 0 43.746 9.022 9.743-4.408 23.185-14.16 14.16-19.768-18.969-19.769-53.097 0-72.066zm-298.77 54.112c5.5297 0 10.012-4.482 10.012-10.012v-70.085c-0.5287-13.284-19.501-13.274-20.024 0v70.085c0 5.53 4.4824 10.012 10.012 10.012zm30.037-60.072c0-16.562 13.474-30.037 30.036-30.037s30.036 13.475 30.036 30.037v30.036c-1.639 39.826-58.419 39.856-60.073 0v-30.036zm20.024 30.036c0.5467 13.275 19.472 13.284 20.024 0h1e-3v-30.036c0-5.521-4.4914-10.012-10.012-10.012h-1e-3c-5.5207 0-10.012 4.491-10.012 10.012v30.036zm90.11-60.073c-16.562 0-30.036 13.475-30.036 30.037v30.036c1.654 39.856 58.434 39.826 60.073 0v-30.036c0-16.562-13.475-30.037-30.037-30.037zm10.012 60.073c-0.551 13.285-19.478 13.275-20.024 0v-30.036c0-5.521 4.492-10.012 10.012-10.012 5.521 0 10.012 4.491 10.012 10.012v30.036zm-100.12-90.11c0 5.53-4.4824 10.012-10.012 10.012-5.5296 0-10.012-4.482-10.012-10.012v-70.084c0.5237-13.274 19.496-13.284 20.024 0v70.084zm80.098-20.024v-30.036c-1.654-39.856-58.433-39.826-60.072 0v30.036c1.655 39.856 58.433 39.826 60.072 0zm-20.024 0c-0.552 13.285-19.478 13.276-20.024 0v-30.036c0-5.5207 4.491-10.012 10.012-10.012s10.012 4.4914 10.012 10.012v30.036zm60.074 20.024c0 5.53-4.483 10.012-10.013 10.012-5.529 0-10.012-4.482-10.012-10.012v-70.084c0.524-13.274 19.496-13.284 20.025 0v70.084zm-90.11 140.17c-5.5297 0-10.012 4.483-10.012 10.012v70.085c0.5286 13.284 19.5 13.274 20.024 0v-70.085c0-5.529-4.4826-10.012-10.012-10.012zm-30.038 30.037v30.036c-1.639 39.826-58.418 39.857-60.072 0v-30.036c1.639-39.827 58.418-39.857 60.072 0zm-40.048 30.036c0.5466 13.276 19.472 13.285 20.024 0v-30.036c0-5.521-4.4914-10.013-10.012-10.013-5.5207 0-10.012 4.492-10.012 10.013v30.036zm130.16-60.073c-16.562 0-30.036 13.475-30.036 30.037v30.036c1.655 39.857 58.434 39.826 60.073 0v-30.036c0-16.562-13.475-30.037-30.037-30.037zm10.012 60.073c-0.551 13.285-19.478 13.276-20.024 0v-30.036c0-5.521 4.492-10.013 10.012-10.013 5.521 0 10.012 4.492 10.012 10.013v30.036zm-40.051 60.07c0-5.529 4.482-10.012 10.012-10.012s10.012 4.483 10.012 10.012v70.085c-0.523 13.274-19.495 13.284-20.024 0v-70.085zm-50.061-10.012c-16.562 0-30.036 13.474-30.036 30.036v30.037c1.655 39.856 58.433 39.827 60.073 0v-30.037c0-16.563-13.474-30.036-30.036-30.036zm10.012 60.073c-0.5517 13.286-19.478 13.275-20.024 0v-30.037c0.5517-13.284 19.478-13.275 20.024 0v30.037zm80.099-50.061c0-5.529 4.483-10.012 10.012-10.012 5.53 0 10.013 4.483 10.013 10.012v70.085c-0.524 13.274-19.496 13.284-20.025 0v-70.085z" clip-rule="evenodd" fill-rule="evenodd"/>
<path d="m406.55 235.39-3.096-2.533-2.754 3.366 3.584 2.464 2.266-3.297zm-9.944 150.93-1.819-3.563-2.396 1.223 0.229 2.681 3.986-0.341zm-18.352 56.786-3.031-2.61-4e-3 5e-3 3.035 2.605zm-39.623 24.601-0.985-3.877-2.136 0.543-0.683 2.096 3.804 1.238zm-134.39-20.052h-4v0.04l1e-3 0.04 3.999-0.08zm0-149.48-3.997-0.157-3e-3 0.078v0.079h4zm0.022-0.409 3.99 0.278 0.01-0.139v-0.139h-4zm0-89.293h4v-0.138l-0.01-0.139-3.99 0.277zm-0.022-0.407h-4v0.08l3e-3 0.08 3.997-0.16zm0-149.48-3.999-0.1163-1e-3 0.0582v0.0581h4zm108.86-9.7537-3.916 0.8137 0.824 3.9653 3.954-0.8731-0.862-3.9059zm72.986 72.417-3.912-0.833-0.6 2.816 2.481 1.463 2.031-3.446zm-161.83 86.869-3.996-0.17-4e-3 0.085v0.085h4zm2e-3 -0.048 3.997 0.158 3e-3 -0.079v-0.079h-4zm0-149.48-3.997-0.1462-3e-3 0.0731v0.0731h4zm69.613-2.2437 2.052 3.4335 2.18-1.3028-0.252-2.5268-3.98 0.3961zm-21.702 22.067 3.464 2.0003v-2e-4l-3.464-2.0001zm3.664 13.676 2.014-3.4563-0.014-8e-3 -2 3.4643zm13.677-3.6644-3.464-2.0001-4e-3 0.0054 3.468 1.9947zm18.638-17.002-1.665-3.6368-9e-3 4e-3 1.674 3.6328zm0.317-0.1532-1.653-3.6425-0.069 0.0311-0.067 0.0337 1.789 3.5777zm56.564 51.372 3.724 1.459 0.032-0.081 0.029-0.084-3.785-1.294zm-0.053 0.137 3.736 1.428 1e-3 -1e-3 -3.737-1.427zm-0.04 0.107 3.752 1.385 1e-3 -1e-3 -3.753-1.384zm-0.043 0.12 3.775 1.321 1e-3 -3e-3 -3.776-1.318zm-18.489 22.315-2-3.464 2 3.464zm-3.665 13.677 3.467-1.995-3e-3 -4e-3 -3.464 1.999zm13.677 3.666-2-3.464-0.012 7e-3 2.012 3.457zm22.389-22.258 2.249-3.309-3.539-2.404-2.161 3.692 3.451 2.021zm9.623 85.402-1.453 3.726 2.525 0.986 1.851-1.982-2.923-2.73zm-9.207-3.02-1.036 3.864h2e-3l1.034-3.864zm-12.262 7.08 3.864 1.036v-1e-3l-3.864-1.035zm7.08 12.262 1.035-3.864-1.035 3.864zm12.211 4.564 1.758-3.593-5e-3 -3e-3 -1.753 3.596zm0.425 0.195 1.75-3.597-0.074-0.036-0.075-0.032-1.601 3.665zm-4.273 123.95 1.317 3.777 0.092-0.032 0.091-0.037-1.5-3.708zm-0.044 0.015-1.318-3.776-9e-3 3e-3 -8e-3 3e-3 1.335 3.77zm-0.031 0.011-1.335-3.77-6e-3 2e-3 1.341 3.768zm-0.136 0.05-1.403-3.746h-1e-3l1.404 3.746zm-0.084 0.032-1.436-3.734-0.013 5e-3 1.449 3.729zm-0.059 0.023-1.448-3.729-0.012 5e-3 1.46 3.724zm-0.114 0.045-1.507-3.705-1e-3 1e-3 1.508 3.704zm-43.138 2.643 1.041-3.862-5e-3 -1e-3 -1.036 3.863zm-12.262 7.08 3.864 1.036v-1e-3l-3.864-1.035zm7.08 12.262 1.04-3.863-5e-3 -1e-3 -1.035 3.864zm43.222 0.61 4 0.055 0.07-5.144-5.002 1.2 0.932 3.889zm-47.739 55.665 0.535 3.964 0.062-9e-3 0.062-0.01-0.659-3.945zm-0.128 0.018-0.59-3.956 0.59 3.956zm-0.138 0.022 0.647 3.947 0.01-2e-3 9e-3 -1e-3 -0.666-3.944zm-24.08-1.198 1.036-3.863-1e-3 -1e-3 -1.035 3.864zm-12.263 7.08 3.864 1.036v-1e-3l-3.864-1.035zm7.08 12.263-1.036 3.863h1e-3l1.035-3.863zm16.581 2.557 3.534 1.873 2.963-5.589-6.32-0.28-0.177 3.996zm-91.891-22.35h-4v0.024 0.025l4-0.049zm0-149.48h4v-0.079l-3e-3 -0.08-3.997 0.159zm-2e-3 -0.047h-4v0.086l4e-3 0.085 3.996-0.171zm0-44.804-3.999-0.078-1e-3 0.039v0.039h4zm0-0.407h-4v0.039l1e-3 0.039 3.999-0.078zm76.47-140.75-2.714-2.938-0.089 0.082-0.083 0.087 2.886 2.769zm-43.746 0 2.887-2.77-0.084-0.087-0.089-0.082-2.714 2.939zm57.906 14.16 2.887 2.769 0.026-0.027 0.026-0.029-2.939-2.713zm-72.066 0-2.938 2.714 0.026 0.028 0.026 0.027 2.886-2.769zm65.331 210.41 3.864-1.035-3.864 1.035zm-7.079 12.263-1.035-3.864h-1e-3l1.036 3.864zm-5.183-19.344-1.035-3.864v1e-3l1.035 3.863zm-26.197 20.101-3.464-2v1e-3l3.464 1.999zm-4.309 32.737 3.869-1.014-3e-3 -0.011-3e-3 -0.01-3.863 1.035zm12.261 7.081-1.035-3.864-0.03 8e-3 1.065 3.856zm7.08-12.263 3.864-1.035-3.864 1.035zm2.31-17.542-3.464-2.001-1e-3 1e-3 3.465 2zm39.897-163.87 2.829-2.828-1e-3 -1e-3 -2.828 2.829zm-14.16 0 2.769 2.886 0.03-0.028 0.029-0.029-2.828-2.829zm14.16 14.16 2.769 2.886 0.03-0.028 0.029-0.03-2.828-2.828zm0 43.746 2.935-2.718-0.081-0.087-0.085-0.082-2.769 2.887zm-14.16 14.16-2.77 2.886 0.026 0.025 0.027 0.025 2.717-2.936zm-288.76-98.051h4v-0.079l-0.0032-0.08-3.9968 0.159zm-20.024 0-3.9969-0.157-0.0031086 0.079v0.078h4zm100.12 50.061 3.996 0.164 4e-3 -0.082v-0.082h-4zm-60.073 0h-4v0.083l0.0035 0.083 3.9965-0.166zm40.048 0v-4h-3.8373l-0.1593 3.834 3.9966 0.166zm-20.024 0h-4v0.082l0.0034 0.082 3.9966-0.164zm20.025 0v4h4v-4h-4zm40.049 0h-4v0.083l3e-3 0.083 3.997-0.166zm60.073 0 3.996 0.164 4e-3 -0.082v-0.082h-4zm-40.049 0h-4v0.082l4e-3 0.082 3.996-0.164zm20.024 0 3.997 0.166 3e-3 -0.083v-0.083h-4zm-120.15-160.19-3.9968-0.1577-0.0032 0.0788v0.0789h4zm20.024 0h4v-0.0796l-0.0031-0.0795-3.9969 0.1591zm80.098 20.024h4v-0.083l-3e-3 -0.0829-3.997 0.1659zm0 30.036 3.997 0.164 3e-3 -0.082v-0.082h-4zm-60.072-30.036-3.9966-0.1645-0.0034 0.0822v0.0823h4zm0 30.036h-4v0.083l0.0034 0.083 3.9966-0.166zm20.024 0h-4v0.082l3e-3 0.082 3.997-0.164zm20.024 0 3.997 0.166 3e-3 -0.083v-0.083h-4zm40.049-50.06-3.997-0.1577-3e-3 0.0788v0.0789h4zm20.025 0h4v-0.0796l-4e-3 -0.0795-3.996 0.1591zm-100.12 290.35h-4v0.08l0.0031 0.079 3.9969-0.159zm20.024 0 3.997 0.158 3e-3 -0.079v-0.079h-4zm-40.05-20.024 3.9966 0.164 0.0034-0.082v-0.082h-4zm0-30.036h4v-0.083l-0.0034-0.083-3.9966 0.166zm-60.072 30.036h-4v0.083l0.0034439 0.083 3.9966-0.166zm0-30.036-3.9966-0.165-0.0033829 0.082v0.083h4zm40.048 30.036 3.9966 0.166 0.0034-0.083v-0.083h-4zm-20.024 0h-4v0.082l0.0034 0.082 3.9966-0.164zm100.12 0h-4v0.083l3e-3 0.083 3.997-0.166zm60.073 0 3.996 0.164 4e-3 -0.082v-0.082h-4zm-40.049 0h-4v0.082l4e-3 0.082 3.996-0.164zm20.024 0 3.997 0.166 3e-3 -0.083v-0.083h-4zm-20.027 130.16 3.997 0.158 3e-3 -0.079v-0.079h-4zm-20.024 0h-4v0.079l3e-3 0.08 3.997-0.159zm-80.098-20.024h-4v0.083l0.0035 0.083 3.9965-0.166zm60.073 0 3.996 0.164 4e-3 -0.082v-0.082h-4zm-40.048 0h-4v0.082l0.0034 0.082 3.9966-0.164zm20.024 0 3.9965 0.166 0.0035-0.083v-0.083h-4zm-20.024-30.037-3.9965-0.165-0.0035 0.082v0.083h4zm20.024 0h4v-0.082l-0.0034-0.082-3.9966 0.164zm100.12 50.061 3.996 0.158 4e-3 -0.079v-0.079h-4zm-20.025 0h-4v0.079l4e-3 0.08 3.996-0.159zm284.34-152.38c0-30.772-14.923-58.747-39.718-75.794l-4.532 6.593c22.628 15.556 36.25 41.068 36.25 69.201h8zm-50.109 81.997c30.692-15.67 50.109-47.038 50.109-81.997h-8c0 31.944-17.724 60.564-45.747 74.872l3.638 7.125zm-17.14 55.835c14.129-16.405 21.153-38.147 19.306-59.738l-7.971 0.682c1.664 19.45-4.674 39.064-17.397 53.835l6.062 5.221zm-41.669 25.867c16.127-4.099 30.728-13.124 41.673-25.872l-6.07-5.211c-9.872 11.499-23.041 19.636-37.573 23.329l1.97 7.754zm-139.37-23.849c1.674 83.427 116.54 100.02 142.19 21.21l-7.608-2.476c-22.884 70.304-125.09 55.449-126.58-18.895l-7.998 0.161zm-1e-3 -149.56v149.48h8v-149.48h-8zm0.032-0.686c-0.013 0.175-0.022 0.351-0.029 0.529l7.994 0.315c3e-3 -0.098 9e-3 -0.195 0.015-0.289l-7.98-0.555zm7.99 0.277v-89.293h-8v89.293h8zm-8.019-89.54c7e-3 0.176 0.016 0.351 0.029 0.525l7.98-0.555c-6e-3 -0.094-0.012-0.191-0.015-0.289l-7.994 0.319zm-3e-3 -149.64v149.48h8v-149.48h-8zm116.78-10.568c-14.469-69.638-114.69-61.269-116.78 10.451l7.997 0.2327c1.808-62.144 88.391-69.498 100.95-9.0564l7.832-1.6275zm72.983 74.064c9.643-45.298-32.565-87.134-77.761-77.156l1.724 7.8119c39.52-8.7246 76.642 28.078 68.212 67.678l7.825 1.666zm19.639 115.84c30.532-37.316 19.819-95.749-21.52-120.12l-4.063 6.892c37.147 21.898 46.793 74.67 19.391 108.16l6.192 5.066zm-181.38-29.633c1e-3 -0.019 2e-3 -0.039 3e-3 -0.06l-7.994-0.315c0 0.01-1e-3 0.022-1e-3 0.035l7.992 0.34zm6e-3 -0.218v-149.48h-8v149.48h8zm-3e-3 -149.34c1.458-39.859 57.696-41.57 61.636-1.9938l7.96-0.7923c-4.917-49.409-75.765-47.41-77.59 2.4936l7.994 0.2925zm63.564-5.8234c-9.569 5.7194-17.482 13.746-23.114 23.5l6.928 4.0002c4.952-8.5779 11.895-15.616 20.29-20.633l-4.104-6.8669zm-23.114 23.5c-3.87 6.7021-1.574 15.272 5.128 19.141l4-6.9285c-2.876-1.6598-3.861-5.3365-2.2-8.2119l-6.928-4.0006zm5.115 19.133c6.6 3.8455 15.26 1.6483 19.157-5.126l-6.935-3.9893c-1.663 2.8914-5.389 3.8379-8.195 2.2028l-4.027 6.9125zm19.154-5.1206c3.915-6.7818 9.735-12.09 16.848-15.369l-3.348-7.2656c-8.616 3.9705-15.686 10.42-20.428 18.634l6.928 4.0001zm16.84-15.365c0.174-0.0799 0.332-0.1586 0.439-0.2123l-3.577-7.1555c-0.101 0.0504-0.153 0.0759-0.193 0.0941l3.331 7.2737zm0.303-0.1475c29.719-13.486 61.686 15.553 51.127 46.435l7.57 2.588c12.825-37.51-25.891-72.695-62.002-56.308l3.305 7.2851zm51.187 46.27c-0.02 0.053-0.042 0.11-0.065 0.17l7.474 2.853c0.012-0.032 0.025-0.066 0.04-0.105l-7.449-2.918zm-0.065 0.169c-0.018 0.049-0.037 0.099-0.056 0.149l7.506 2.769c7e-3 -0.021 0.015-0.042 0.023-0.063l-7.473-2.855zm-0.055 0.148c-0.022 0.059-0.045 0.122-0.068 0.187l7.553 2.637c5e-3 -0.015 0.012-0.033 0.019-0.053l-7.504-2.771zm-0.067 0.185c-2.976 8.503-8.911 15.667-16.713 20.172l4 6.928c9.461-5.462 16.656-14.147 20.264-24.458l-7.551-2.642zm-16.713 20.172c-6.701 3.87-8.998 12.438-5.13 19.141l6.929-3.999c-1.66-2.877-0.674-6.554 2.202-8.214l-4.001-6.928zm-5.132 19.136c3.899 6.775 12.556 8.97 19.157 5.128l-4.025-6.914c-2.809 1.634-6.534 0.688-8.198-2.204l-6.934 3.99zm19.144 5.135c9.927-5.731 18.12-13.93 23.841-23.701l-6.903-4.042c-5.026 8.583-12.222 15.783-20.938 20.815l4 6.928zm18.141-22.414c25.889 17.595 30.422 56.377 8.948 79.363l5.846 5.461c24.852-26.603 19.619-71.109-10.297-91.441l-4.497 6.617zm13.325 78.367c-3.15-1.228-6.368-2.284-9.627-3.157l-2.068 7.728c2.972 0.796 5.91 1.76 8.788 2.882l2.907-7.453zm-9.625-3.156c-7.477-2.006-15.16 2.433-17.162 9.908l7.728 2.07c0.859-3.208 4.156-5.111 7.362-4.251l2.072-7.727zm-17.161 9.907c-2.004 7.475 2.432 15.159 9.908 17.161l2.07-7.727c-3.208-0.859-5.111-4.156-4.251-7.362l-7.727-2.072zm9.907 17.161c3.949 1.058 7.817 2.504 11.495 4.297l3.505-7.192c-4.137-2.016-8.485-3.641-12.929-4.832l-2.071 7.727zm11.489 4.294c0.209 0.102 0.406 0.191 0.582 0.268l3.202-7.331c-0.109-0.048-0.194-0.087-0.268-0.123l-3.516 7.186zm0.433 0.199c49.036 23.859 46.49 96.211-4.023 116.64l3 7.416c56.923-23.024 59.803-104.36 4.523-131.25l-3.5 7.194zm-3.841 116.57-0.044 0.016 2.636 7.553 0.043-0.015-2.635-7.554zm-0.061 0.022-0.031 0.011 2.671 7.541 0.03-0.011-2.67-7.541zm-0.037 0.013c-0.067 0.023-0.133 0.048-0.198 0.072l2.806 7.492c0.025-0.01 0.05-0.019 0.075-0.027l-2.683-7.537zm-0.199 0.072c-0.037 0.014-0.076 0.029-0.116 0.044l2.872 7.467c0.016-6e-3 0.033-0.012 0.052-0.019l-2.808-7.492zm-0.129 0.049-0.058 0.023 2.897 7.457 0.058-0.023-2.897-7.457zm-0.07 0.028c-0.055 0.021-0.108 0.043-0.161 0.064l3.015 7.41c0.023-9e-3 0.045-0.018 0.067-0.027l-2.921-7.447zm-0.162 0.065c-12.795 5.21-27.242 6.081-40.589 2.485l-2.082 7.725c15.027 4.048 31.265 3.072 45.688-2.801l-3.017-7.409zm-40.594 2.484c-7.477-2.004-15.159 2.433-17.161 9.908l7.727 2.07c0.859-3.208 4.154-5.111 7.363-4.251l2.071-7.727zm-17.161 9.907c-2.004 7.475 2.432 15.159 9.908 17.162l2.07-7.728c-3.208-0.859-5.111-4.156-4.251-7.362l-7.727-2.072zm9.903 17.16c14.682 3.954 30.44 4.175 45.195 0.638l-1.865-7.779c-13.454 3.225-27.856 3.024-41.25-0.584l-2.08 7.725zm40.262-3.306c-0.355 25.856-18.896 47.513-44.398 51.773l1.318 7.891c29.329-4.899 50.672-29.842 51.08-59.555l-8-0.109zm-44.273 51.754c-0.058 8e-3 -0.119 0.017-0.184 0.027l1.18 7.912c0.02-3e-3 0.044-6e-3 0.073-0.01l-1.069-7.929zm-0.184 0.027c-0.069 0.01-0.14 0.021-0.214 0.034l1.332 7.888c0.018-3e-3 0.039-6e-3 0.062-0.01l-1.18-7.912zm-0.195 0.03c-7.432 1.219-15.127 0.835-22.397-1.113l-2.072 7.727c8.367 2.242 17.21 2.683 25.763 1.281l-1.294-7.895zm-22.398-1.114c-7.477-2.002-15.158 2.433-17.161 9.908l7.727 2.071c0.86-3.207 4.154-5.11 7.364-4.251l2.07-7.728zm-17.161 9.908c-2.004 7.475 2.432 15.159 9.907 17.162l2.071-7.727c-3.208-0.86-5.111-4.157-4.251-7.363l-7.727-2.072zm9.908 17.162c5.699 1.527 11.55 2.429 17.439 2.69l0.354-7.992c-5.309-0.236-10.585-1.049-15.723-2.425l-2.07 7.727zm14.082-3.18c-21.772 41.073-83.777 26.344-84.357-20.526l-8 0.099c0.684 55.217 73.801 72.514 99.425 24.174l-7.068-3.747zm-84.357-20.476v-149.48h-8v149.48h8zm-3e-3 -149.64c-1e-3 -0.021-2e-3 -0.041-3e-3 -0.059l-7.992 0.342c0 0.013 1e-3 0.025 1e-3 0.035l7.994-0.318zm-7.999-44.692v44.804h8v-44.804h-8zm2e-3 -0.2c0 0.04-1e-3 0.081-1e-3 0.122l7.998 0.156c2e-3 -0.093 3e-3 -0.185 3e-3 -0.278h-8zm0-7e-3v7e-3h8v-7e-3h-8zm-1e-3 -0.122c0 0.041 1e-3 0.081 1e-3 0.122h8c0-0.093-1e-3 -0.186-3e-3 -0.278l-7.998 0.156zm-1e-3 -44.881v44.803h8v-44.803h-8zm77.584-98.712c-9.939 10.359-28.035 10.358-37.973-1e-3l-5.773 5.539c13.087 13.64 36.431 13.642 49.519 0l-5.773-5.538zm19.985 19.642c12.502-13.54-6.297-32.3-19.813-19.811l5.429 5.876c5.999-5.544 14.042 2.513 8.506 8.508l5.878 5.427zm-77.891 0.056c20.542 21.409 57.296 21.409 77.839 0l-5.773-5.539c-17.393 18.127-48.9 18.127-66.293 0l-5.773 5.539zm19.76-19.868c-13.545-12.506-32.295 6.301-19.812 19.813l5.876-5.429c-5.546-6.003 2.518-14.038 8.509-8.506l5.427-5.878zm44.593 228.54c0.86 3.208-1.045 6.505-4.25 7.364l2.07 7.727c7.475-2.002 11.91-9.687 9.908-17.161l-7.728 2.07zm-7.363-4.252c3.208-0.859 6.504 1.044 7.363 4.252l7.728-2.07c-2.002-7.476-9.685-11.912-17.161-9.91l2.07 7.728zm-23.768 18.238c5.232-9.063 13.663-15.53 23.769-18.238l-2.071-7.727c-12.155 3.257-22.333 11.064-28.626 21.964l6.928 4.001zm-3.91 29.701c-2.708-10.106-1.321-20.641 3.91-29.702l-6.928-3.999c-6.292 10.897-7.966 23.616-4.709 35.771l7.727-2.07zm7.333 4.26c-3.08 0.851-6.489-1.043-7.327-4.239l-7.739 2.028c1.986 7.575 9.882 11.943 17.196 9.922l-2.13-7.711zm4.281-7.372c0.859 3.208-1.045 6.505-4.251 7.364l2.07 7.727c7.475-2.002 11.911-9.687 9.909-17.161l-7.728 2.07zm2.709-20.577c-3.616 6.266-4.581 13.587-2.709 20.577l7.728-2.07c-1.324-4.941-0.647-10.079 1.91-14.508l-6.929-3.999zm16.467-12.634c-6.988 1.872-12.847 6.367-16.466 12.633l6.927 4.001c2.559-4.429 6.67-7.583 11.61-8.907l-2.071-7.727zm29.723-152.06c-5.472-5.472-14.344-5.471-19.816 0l5.656 5.658c2.349-2.349 6.156-2.348 8.503-1e-3l5.657-5.657zm0 19.817c5.472-5.472 5.472-14.344 1e-3 -19.816l-5.658 5.656c2.348 2.349 2.348 6.156 0 8.503l5.657 5.657zm-0.059 38.031c-10.36-9.939-10.36-28.033 0-37.973l-5.538-5.772c-13.642 13.088-13.643 36.43 0 49.518l5.538-5.773zm-19.646 19.983c13.526 12.516 32.314-6.312 19.812-19.814l-5.87 5.435c5.542 5.986-2.529 14.04-8.509 8.507l-5.433 5.872zm-0.053-77.888c-21.409 20.543-21.408 57.295 0 77.838l5.539-5.772c-18.127-17.395-18.128-48.9 0-66.294l-5.539-5.772zm-289.99 46.986c0 3.321-2.6916 6.012-6.0121 6.012v8c7.7388 0 14.012-6.273 14.012-14.012h-8zm0-70.085v70.085h8v-70.085h-8zm-12.027 0.158c0.32202-8.163 11.706-8.149 12.03 1e-3l7.9937-0.318c-0.7329-18.417-27.293-18.383-28.018 2e-3l7.9938 0.315zm0.00311 69.927v-70.085h-8v70.085h8zm6.0121 6.012c-3.3206 0-6.0121-2.691-6.0121-6.012h-8c0 7.739 6.2733 14.012 14.012 14.012v-8zm60.074-90.109c-18.771 0-34.036 15.265-34.036 34.037h8c0-14.353 11.684-26.037 26.036-26.037v-8zm34.036 34.037c0-18.772-15.265-34.037-34.036-34.037v8c14.353 0 26.036 11.684 26.036 26.037h8zm0 30.036v-30.036h-8v30.036h8zm-68.069 0.166c1.8666 44.98 66.217 44.927 68.065-2e-3l-7.993-0.329c-1.4288 34.724-50.638 34.731-52.079-1e-3l-7.9931 0.332zm-0.0035-30.202v30.036h8v-30.036h-8zm40.052 29.87c-0.339 8.164-11.695 8.171-12.031 1e-3l-7.9932 0.329c0.7569 18.381 27.253 18.406 28.017 2e-3l-7.9931-0.332zm3.9976-3.834h-1e-3v8h1e-3v-8zm-4-26.036v30.036h8v-30.036h-8zm-6.0121-6.012c3.3115 0 6.0121 2.7 6.0121 6.012h8c0-7.73-6.2823-14.012-14.012-14.012v8zm-1e-3 0h1e-3v-8h-1e-3v8zm-6.0121 6.012c0-3.312 2.7006-6.012 6.0121-6.012v-8c-7.7298 0-14.012 6.282-14.012 14.012h8zm0 30.036v-30.036h-8v30.036h8zm60.074-30.036c0-14.353 11.683-26.037 26.036-26.037v-8c-18.771 0-34.036 15.265-34.036 34.037h8zm0 30.036v-30.036h-8v30.036h8zm52.076-0.165c-1.429 34.724-50.638 34.731-52.079-1e-3l-7.994 0.332c1.867 44.98 66.217 44.927 68.066-2e-3l-7.993-0.329zm-3e-3 -29.871v30.036h8v-30.036h-8zm-26.037-26.037c14.353 0 26.037 11.684 26.037 26.037h8c0-18.772-15.266-34.037-34.037-34.037v8zm-14.008 56.237c0.755 18.382 27.253 18.406 28.017 2e-3l-7.993-0.332c-0.339 8.166-11.695 8.169-12.031 2e-3l-7.993 0.328zm-4e-3 -30.2v30.036h8v-30.036h-8zm14.012-14.012c-7.73 0-14.012 6.282-14.012 14.012h8c0-3.312 2.701-6.012 6.012-6.012v-8zm14.012 14.012c0-7.73-6.282-14.012-14.012-14.012v8c3.312 0 6.012 2.7 6.012 6.012h8zm0 30.036v-30.036h-8v30.036h8zm-114.14-76.098c7.7388 0 14.012-6.273 14.012-14.012h-8c0 3.321-2.6915 6.012-6.0121 6.012v8zm-14.012-14.012c0 7.739 6.2733 14.012 14.012 14.012v-8c-3.3205 0-6.0121-2.691-6.0121-6.012h-8zm0-70.084v70.084h8v-70.084h-8zm28.021-0.1591c-0.733-18.417-27.293-18.384-28.018 0.0014l7.9937 0.3154c0.3221-8.1631 11.706-8.1493 12.03 0.0013l7.9937-0.3181zm0.0031 70.244v-70.084h-8v70.084h8zm72.098-50.06v30.036h8v-30.036h-8zm-52.076 0.1644c1.429-34.724 50.638-34.731 52.08 0.0014l7.993-0.3317c-1.867-44.98-66.217-44.927-68.066 0.0014l7.9932 0.3289zm0.0034 29.872v-30.036h-8v30.036h8zm52.076-0.165c-1.429 34.723-50.638 34.733-52.08-1e-3l-7.9931 0.332c1.8677 44.978 66.217 44.928 68.066-2e-3l-7.993-0.329zm-40.049 0.329c0.756 18.387 27.253 18.403 28.018 2e-3l-7.994-0.332c-0.339 8.169-11.695 8.167-12.031 2e-3l-7.993 0.328zm-3e-3 -30.2v30.036h8v-30.036h-8zm14.012-14.012c-7.73 0-14.012 6.2823-14.012 14.012h8c0-3.3116 2.7-6.0121 6.012-6.0121v-8zm14.012 14.012c0-7.7298-6.282-14.012-14.012-14.012v8c3.311 0 6.012 2.7005 6.012 6.0121h8zm0 30.036v-30.036h-8v30.036h8zm46.061 34.036c7.739 0 14.013-6.273 14.013-14.012h-8c0 3.321-2.692 6.012-6.013 6.012v8zm-14.012-14.012c0 7.739 6.274 14.012 14.012 14.012v-8c-3.32 0-6.012-2.691-6.012-6.012h-8zm0-70.084v70.084h8v-70.084h-8zm28.021-0.1591c-0.733-18.417-27.292-18.384-28.018 0.0014l7.994 0.3154c0.322-8.1631 11.706-8.1493 12.031 0.0013l7.993-0.3181zm4e-3 70.244v-70.084h-8v70.084h8zm-100.12 150.18c0-3.32 2.6915-6.012 6.0121-6.012v-8c-7.7388 0-14.012 6.274-14.012 14.012h8zm0 70.085v-70.085h-8v70.085h8zm12.027-0.158c-0.322 8.163-11.706 8.15-12.03-1e-3l-7.9937 0.318c0.733 18.417 27.293 18.384 28.018-1e-3l-7.994-0.316zm-3e-3 -69.927v70.085h8v-70.085h-8zm-6.0122-6.012c3.3205 0 6.0122 2.692 6.0122 6.012h8c0-7.738-6.273-14.012-14.012-14.012v8zm-26.038 56.073v-30.036h-8v30.036h8zm-68.069 0.166c1.8677 44.98 66.217 44.927 68.066-2e-3l-7.9932-0.329c-1.429 34.724-50.637 34.732-52.079-1e-3l-7.9931 0.332zm-0.0034439-30.202v30.036h8v-30.036h-8zm68.069-0.166c-1.8667-44.98-66.217-44.927-68.066 1e-3l7.9932 0.329c1.429-34.724 50.638-34.731 52.079 1e-3l7.9931-0.331zm-28.017 30.036c-0.339 8.164-11.695 8.172-12.031 1e-3l-7.9932 0.329c0.7568 18.382 27.253 18.407 28.017 2e-3l-7.9931-0.332zm-0.0035-29.87v30.036h8v-30.036h-8zm-6.012-6.013c3.3115 0 6.012 2.701 6.012 6.013h8c0-7.73-6.2822-14.013-14.012-14.013v8zm-6.0121 6.013c0-3.312 2.7005-6.013 6.0121-6.013v-8c-7.7298 0-14.012 6.283-14.012 14.013h8zm0 30.036v-30.036h-8v30.036h8zm100.12-30.036c0-14.353 11.683-26.037 26.036-26.037v-8c-18.771 0-34.036 15.265-34.036 34.037h8zm0 30.036v-30.036h-8v30.036h8zm52.076-0.165c-1.429 34.724-50.637 34.732-52.079-1e-3l-7.994 0.332c1.868 44.98 66.217 44.927 68.066-2e-3l-7.993-0.329zm-3e-3 -29.871v30.036h8v-30.036h-8zm-26.037-26.037c14.353 0 26.037 11.684 26.037 26.037h8c0-18.772-15.266-34.037-34.037-34.037v8zm-14.008 56.237c0.755 18.387 27.253 18.402 28.017 2e-3l-7.993-0.332c-0.339 8.169-11.696 8.167-12.031 2e-3l-7.993 0.328zm-4e-3 -30.2v30.036h8v-30.036h-8zm14.012-14.013c-7.73 0-14.012 6.283-14.012 14.013h8c0-3.312 2.701-6.013 6.012-6.013v-8zm14.012 14.013c0-7.73-6.282-14.013-14.012-14.013v8c3.312 0 6.012 2.701 6.012 6.013h8zm0 30.036v-30.036h-8v30.036h8zm-34.039 46.058c-7.739 0-14.012 6.274-14.012 14.012h8c0-3.32 2.692-6.012 6.012-6.012v-8zm14.012 14.012c0-7.738-6.273-14.012-14.012-14.012v8c3.321 0 6.012 2.692 6.012 6.012h8zm0 70.085v-70.085h-8v70.085h8zm-28.021 0.159c0.733 18.417 27.293 18.384 28.018-1e-3l-7.994-0.316c-0.322 8.163-11.706 8.149-12.03-1e-3l-7.994 0.318zm-3e-3 -70.244v70.085h8v-70.085h-8zm-72.098 20.024c0-14.352 11.684-26.036 26.036-26.036v-8c-18.771 0-34.036 15.265-34.036 34.036h8zm0 30.037v-30.037h-8v30.037h8zm52.076-0.165c-1.4296 34.724-50.637 34.732-52.079-1e-3l-7.9931 0.332c1.8677 44.978 66.215 44.929 68.065-2e-3l-7.993-0.329zm-3e-3 -29.872v30.037h8v-30.037h-8zm-26.036-26.036c14.353 0 26.036 11.683 26.036 26.036h8c0-18.772-15.265-34.036-34.036-34.036v8zm-14.009 56.237c0.7566 18.374 27.253 18.415 28.017 2e-3l-7.9931-0.332c-0.3387 8.158-11.694 8.178-12.031 1e-3l-7.9932 0.329zm-0.0034-30.201v30.037h8v-30.037h-8zm28.021-0.164c-0.7569-18.381-27.253-18.406-28.017-1e-3l7.9931 0.331c0.339-8.163 11.695-8.17 12.031-1e-3l7.9932-0.329zm0.0034 30.201v-30.037h-8v30.037h8zm86.111-64.073c-7.738 0-14.012 6.274-14.012 14.012h8c0-3.32 2.692-6.012 6.012-6.012v-8zm14.013 14.012c0-7.738-6.274-14.012-14.013-14.012v8c3.321 0 6.013 2.692 6.013 6.012h8zm0 70.085v-70.085h-8v70.085h8zm-28.021 0.159c0.732 18.417 27.292 18.384 28.017-1e-3l-7.993-0.316c-0.322 8.163-11.706 8.149-12.031-1e-3l-7.993 0.318zm-4e-3 -70.244v70.085h8v-70.085h-8z" mask="url(#a)"/>
</svg>
