<svg width="512" height="512" viewBox="0 0 512 512" fill="none" xmlns="http://www.w3.org/2000/svg">
<path fill-rule="evenodd" clip-rule="evenodd" d="M0 256C0 114.833 114.833 0 256 0C397.167 0 512 114.833 512 256C512 397.167 397.167 512 256 512C114.833 512 0 397.167 0 256ZM39.659 256C39.659 375.275 136.725 472.341 256 472.341C375.275 472.341 472.341 375.275 472.341 256C472.341 136.725 375.295 39.659 256 39.659C136.725 39.659 39.659 136.725 39.659 256ZM275.829 247.671L347.216 301.211C355.981 307.775 357.766 320.208 351.181 328.954C347.294 334.189 341.345 336.906 335.297 336.906C331.153 336.906 326.988 335.617 323.419 332.94L244.101 273.451C239.104 269.723 236.169 263.833 236.169 257.587V138.609C236.169 127.643 245.033 118.779 255.999 118.779C266.965 118.779 275.829 127.643 275.829 138.609V247.671Z" fill="black"/>
</svg>
