<svg width="666" height="512" viewBox="0 0 666 512" fill="none" xmlns="http://www.w3.org/2000/svg">
<path fill-rule="evenodd" clip-rule="evenodd" d="M665.461 463.763L665.46 463.724C665.458 463.669 665.456 463.613 665.451 463.557C665.416 463.171 665.36 462.793 665.281 462.423C665.276 462.399 665.269 462.374 665.262 462.35C665.259 462.338 665.255 462.326 665.252 462.314C665.176 461.973 665.081 461.64 664.969 461.315C664.955 461.274 664.94 461.234 664.925 461.194L664.901 461.129L664.884 461.085L664.874 461.058C664.765 460.763 664.641 460.476 664.505 460.196C664.501 460.188 664.497 460.179 664.493 460.17L664.485 460.15L664.483 460.145L664.476 460.127C664.465 460.1 664.455 460.073 664.441 460.047L612.304 357.209V18.8718C612.304 8.46559 603.838 0 593.432 0H72.0621C61.6559 0 53.1903 8.46559 53.1903 18.8718V357.207L1.05414 460.045C1.0409 460.072 1.03028 460.099 1.01966 460.126L1.01963 460.126L1.01953 460.126C1.01039 460.149 1.00125 460.172 0.990446 460.195C0.853967 460.474 0.731786 460.762 0.621304 461.055C0.588809 461.141 0.556314 461.227 0.526418 461.314C0.415935 461.64 0.31975 461.974 0.243062 462.315C0.239163 462.332 0.234289 462.35 0.229414 462.367C0.22454 462.385 0.219666 462.403 0.215767 462.42C0.136479 462.792 0.0805875 463.17 0.0454929 463.556C0.0397105 463.617 0.037603 463.679 0.0355003 463.74C0.0342944 463.776 0.0330901 463.811 0.0311952 463.846C0.028283 463.891 0.0251098 463.937 0.0219387 463.982L0.0219076 463.982C0.0109358 464.139 0 464.295 0 464.454V489.184C0 501.544 10.0539 511.598 22.4137 511.598H643.083C655.443 511.598 665.497 501.544 665.497 489.184V464.454C665.497 464.294 665.486 464.136 665.475 463.98C665.471 463.936 665.468 463.892 665.466 463.849C665.464 463.82 665.462 463.791 665.461 463.763ZM72.6886 19.4996H592.808V349.79H72.6886V19.4996ZM68.927 369.286H596.568L639.875 454.705H425.694L414.944 415.725C412.755 407.79 405.479 402.247 397.247 402.247H268.247C260.016 402.247 252.738 407.79 250.55 415.724L239.8 454.705H25.6203L68.927 369.286ZM405.469 454.706H260.027L269.117 421.746H396.38L405.469 454.706ZM646 489.183C646 490.791 644.691 492.1 643.083 492.1H22.4137C20.8059 492.1 19.497 490.791 19.497 489.183V474.202H646V489.183ZM552.515 210.508C552.515 210.552 552.514 210.595 552.514 210.639V309.495H112.982V210.639C112.982 210.546 112.981 210.453 112.978 210.361V158.927C112.981 158.835 112.982 158.742 112.982 158.649V59.7933H552.514V158.649C552.514 158.692 552.515 158.734 552.515 158.776C552.516 158.827 552.517 158.877 552.518 158.928V210.36L552.517 210.392L552.516 210.443L552.515 210.492L552.515 210.508ZM572.013 212.906V313.705C572.013 322.135 565.155 328.992 556.726 328.992H108.772C100.342 328.992 93.4854 322.134 93.4854 313.705V211.606H93.4815V157.014H93.4854V55.5833C93.4854 47.1528 100.343 40.2963 108.772 40.2963H556.724C565.155 40.2963 572.011 47.1515 572.011 55.5833V158.314H572.015V212.906H572.013ZM473 112H506V267H473V112ZM456 172H423V267H456V172ZM373 206H406V267H373V206ZM158 100C155.239 100 153 102.239 153 105V120C153 122.761 155.239 125 158 125H300C302.761 125 305 122.761 305 120V105C305 102.239 302.761 100 300 100H158ZM153 155C153 150.582 156.582 147 161 147H244C248.418 147 252 150.582 252 155C252 159.418 248.418 163 244 163H161C156.582 163 153 159.418 153 155ZM167 253V232H204V253H167ZM153 229C153 222.925 157.925 218 164 218H207C213.075 218 218 222.925 218 229V256C218 262.075 213.075 267 207 267H164C157.925 267 153 262.075 153 256V229Z" fill="black"/>
</svg>
