<svg width="533" height="512" viewBox="0 0 533 512" fill="none" xmlns="http://www.w3.org/2000/svg">
<path d="M119.297 512C113.457 512 107.658 510.174 102.709 506.587C93.4902 499.889 89.1837 488.378 91.6927 477.27L125.982 325.867L9.69448 223.643C1.14655 216.163 -2.1189 204.317 1.39055 193.479C4.89999 182.66 14.4483 175.001 25.7534 173.953L179.616 159.952L240.448 17.2547C244.933 6.77063 255.148 0 266.498 0C277.848 0 288.063 6.77063 292.549 17.2303L353.38 159.952L507.219 173.953C518.548 174.977 528.096 182.66 531.606 193.479C535.115 204.297 531.87 216.163 523.322 223.643L407.035 325.846L441.324 477.246C443.837 488.378 439.527 499.889 430.312 506.566C421.117 513.243 408.857 513.757 399.174 507.924L266.498 428.449L133.822 507.969C129.337 510.639 124.339 512 119.297 512V512ZM266.498 394.213C271.541 394.213 276.534 395.57 281.024 398.24L406.238 473.308L373.876 330.408C371.566 320.237 375.01 309.619 382.851 302.738L492.652 206.213L347.382 192.99C336.923 192.032 327.928 185.44 323.841 175.78L266.498 41.117L209.086 175.8C205.044 185.395 196.049 191.987 185.614 192.945L40.3239 206.168L150.121 302.693C157.986 309.594 161.426 320.193 159.096 330.387L126.759 473.284L251.972 398.24C256.458 395.57 261.456 394.213 266.498 394.213V394.213ZM178.441 162.711C178.441 162.711 178.441 162.736 178.416 162.756L178.441 162.711ZM354.511 162.646L354.535 162.691C354.535 162.666 354.535 162.666 354.511 162.646Z" fill="black"/>
</svg>
